# xmcd CD database file
#
# Track frame offsets:
#	150
#	16363
#	33518
#	49469
#	65384
#	79045
#	94767
#	109203
#	125391
#	139638
#	158326
#	173338
#	189398
#	209277
#
# Disc length: 3027 seconds
#
# Revision: 0
# Processed by: cddbd v1.5.2PL0 Copyright (c) Steve Scherf et al.
# Submitted via: jetAudio 7
#
DISCID=af0bd10e
DTITLE=Hugo - Deur die straights
DYEAR=1900
DGENRE=misc
TTITLE0=Die Hysbak Song
TTITLE1=Bicycle Sonder Slot
TTITLE2=Saartjie Van Biesiesvlei
TTITLE3=Deur Die Straights
TTITLE4=Jantjie Pieterse
TTITLE5=Rooi Son En Tequila
TTITLE6=Valerie
TTITLE7=Ek En Jy
TTITLE8=Jantjie Van Die Berg
TTITLE9=Dalk 'n Boerseun
TTITLE10=Rooi Satyn
TTITLE11=Suburban Bliss
TTITLE12=Krisjan Swart
TTITLE13=Hillbrow
EXTD=
EXTT0=
EXTT1=
EXTT2=
EXTT3=
EXTT4=
EXTT5=
EXTT6=
EXTT7=
EXTT8=
EXTT9=
EXTT10=
EXTT11=
EXTT12=
EXTT13=
PLAYORDER=
